<svg width="12" height="14" viewBox="0 0 12 14" fill="none" xmlns="http://www.w3.org/2000/svg">
<path fill-rule="evenodd" clip-rule="evenodd" d="M0.666992 5.66671C0.666992 2.64615 3.05795 0.333374 6.00033 0.333374C8.9427 0.333374 11.3337 2.64615 11.3337 5.66671C11.3337 7.49365 10.4155 9.1823 9.38528 10.5076C8.35068 11.8387 7.17119 12.8441 6.58038 13.3113C6.23743 13.5825 5.76322 13.5825 5.42027 13.3113C4.82946 12.8441 3.64997 11.8387 2.61537 10.5076C1.58516 9.1823 0.666992 7.49365 0.666992 5.66671ZM4.16553 5.66671C4.16553 4.65419 4.98634 3.83337 5.99886 3.83337C7.01138 3.83337 7.83219 4.65419 7.83219 5.66671C7.83219 6.67923 7.01138 7.50004 5.99886 7.50004C4.98634 7.50004 4.16553 6.67923 4.16553 5.66671Z" fill="#242424"/>
</svg>
